<mxfile host="app.diagrams.net" modified="2023-06-15T12:17:02.581Z" agent="Mozilla/5.0 (Windows NT 10.0; Win64; x64) AppleWebKit/537.36 (KHTML, like Gecko) Chrome/114.0.0.0 Safari/537.36 Edg/114.0.1823.43" version="21.4.0" etag="T9xEB9NUXfDTno3pWY5o" type="github">
  <diagram name="Page-1" id="4eYwri_sUWwxbLe2jKeN">
    <mxGraphModel>
      <root>
        <mxCell id="0" />
        <mxCell id="1" parent="0" />
      </root>
    </mxGraphModel>
  </diagram>
</mxfile>
